<svg xmlns="http://www.w3.org/2000/svg" viewBox="0 0 500 500"><g id="freepik--background-simple--inject-199"><path d="M227.77,50.55a208.85,208.85,0,0,0-21-6.06C124.69,26.17,9.43,84.74,16.17,179.52c1.6,22.58,12.54,41.14,19.34,62.23,15.46,48,4.35,96.41,14.73,144.65,8,37.4,38.95,65.33,71.49,82.61,35.36,18.77,69.42,22.79,108.33,13.2,43.62-10.76,69-44.18,93.58-79,11.05-15.69,22.48-31.83,37.25-44.29,18.5-15.59,40.35-27.3,59.85-41.6,20.27-14.87,39.38-32.29,51.34-54.4,38.33-70.81-27.29-164.51-95-188.91-24-8.64-49.88-8.11-75-8.71C275,64.62,253.4,59.14,227.77,50.55Z" style="fill:#C53F3F"></path><path d="M227.77,50.55a208.85,208.85,0,0,0-21-6.06C124.69,26.17,9.43,84.74,16.17,179.52c1.6,22.58,12.54,41.14,19.34,62.23,15.46,48,4.35,96.41,14.73,144.65,8,37.4,38.95,65.33,71.49,82.61,35.36,18.77,69.42,22.79,108.33,13.2,43.62-10.76,69-44.18,93.58-79,11.05-15.69,22.48-31.83,37.25-44.29,18.5-15.59,40.35-27.3,59.85-41.6,20.27-14.87,39.38-32.29,51.34-54.4,38.33-70.81-27.29-164.51-95-188.91-24-8.64-49.88-8.11-75-8.71C275,64.62,253.4,59.14,227.77,50.55Z" style="fill:#fff;opacity:0.8"></path></g><g id="freepik--Stars--inject-199"><polygon points="436.52 59.06 449.13 87.65 480.19 84.27 461.73 109.48 480.19 134.69 449.13 131.31 436.52 159.9 423.92 131.31 392.86 134.69 411.31 109.48 392.86 84.27 423.92 87.65 436.52 59.06" style="fill:none;stroke:#263238;stroke-linecap:round;stroke-linejoin:round"></polygon><line x1="436.52" y1="59.06" x2="436.52" y2="159.9" style="fill:none;stroke:#263238;stroke-linecap:round;stroke-linejoin:round"></line><polyline points="449.13 87.65 436.95 108.28 423.92 87.65" style="fill:none;stroke:#263238;stroke-linecap:round;stroke-linejoin:round"></polyline><polyline points="423.92 131.31 436.95 108.28 449.13 131.31" style="fill:none;stroke:#263238;stroke-linecap:round;stroke-linejoin:round"></polyline><polyline points="480.19 84.27 436.95 108.28 480.19 134.69" style="fill:none;stroke:#263238;stroke-linecap:round;stroke-linejoin:round"></polyline><polyline points="392.86 84.27 436.95 108.28 392.86 134.69" style="fill:none;stroke:#263238;stroke-linecap:round;stroke-linejoin:round"></polyline><line x1="411.31" y1="109.48" x2="461.73" y2="109.48" style="fill:none;stroke:#263238;stroke-linecap:round;stroke-linejoin:round"></line><polygon points="79.17 386.22 89.8 410.32 115.99 407.48 100.43 428.73 115.99 449.99 89.8 447.14 79.17 471.24 68.55 447.14 42.36 449.99 57.92 428.73 42.36 407.48 68.55 410.32 79.17 386.22" style="fill:none;stroke:#263238;stroke-linecap:round;stroke-linejoin:round"></polygon><line x1="79.17" y1="386.22" x2="79.17" y2="471.24" style="fill:none;stroke:#263238;stroke-linecap:round;stroke-linejoin:round"></line><polyline points="89.8 410.32 79.54 427.72 68.55 410.32" style="fill:none;stroke:#263238;stroke-linecap:round;stroke-linejoin:round"></polyline><polyline points="68.55 447.14 79.54 427.72 89.8 447.14" style="fill:none;stroke:#263238;stroke-linecap:round;stroke-linejoin:round"></polyline><polyline points="115.99 407.48 79.54 427.72 115.99 449.99" style="fill:none;stroke:#263238;stroke-linecap:round;stroke-linejoin:round"></polyline><polyline points="42.36 407.48 79.54 427.72 42.36 449.99" style="fill:none;stroke:#263238;stroke-linecap:round;stroke-linejoin:round"></polyline><line x1="57.92" y1="428.73" x2="100.43" y2="428.73" style="fill:none;stroke:#263238;stroke-linecap:round;stroke-linejoin:round"></line><polygon points="419.17 407.36 426.87 424.82 445.84 422.76 434.57 438.16 445.84 453.56 426.87 451.49 419.17 468.96 411.47 451.49 392.5 453.56 403.77 438.16 392.5 422.76 411.47 424.82 419.17 407.36" style="fill:none;stroke:#263238;stroke-linecap:round;stroke-linejoin:round"></polygon><line x1="419.17" y1="407.36" x2="419.17" y2="468.96" style="fill:none;stroke:#263238;stroke-linecap:round;stroke-linejoin:round"></line><polyline points="426.87 424.82 419.44 437.42 411.47 424.82" style="fill:none;stroke:#263238;stroke-linecap:round;stroke-linejoin:round"></polyline><polyline points="411.47 451.49 419.44 437.42 426.87 451.49" style="fill:none;stroke:#263238;stroke-linecap:round;stroke-linejoin:round"></polyline><polyline points="445.84 422.76 419.44 437.42 445.84 453.56" style="fill:none;stroke:#263238;stroke-linecap:round;stroke-linejoin:round"></polyline><polyline points="392.5 422.76 419.44 437.42 392.5 453.56" style="fill:none;stroke:#263238;stroke-linecap:round;stroke-linejoin:round"></polyline><line x1="403.77" y1="438.16" x2="434.57" y2="438.16" style="fill:none;stroke:#263238;stroke-linecap:round;stroke-linejoin:round"></line><polygon points="81.38 29.57 89.08 47.03 108.05 44.97 96.78 60.37 108.05 75.77 89.08 73.7 81.38 91.17 73.68 73.7 54.71 75.77 65.98 60.37 54.71 44.97 73.68 47.03 81.38 29.57" style="fill:none;stroke:#263238;stroke-linecap:round;stroke-linejoin:round"></polygon><line x1="81.38" y1="29.57" x2="81.38" y2="91.17" style="fill:none;stroke:#263238;stroke-linecap:round;stroke-linejoin:round"></line><polyline points="89.08 47.03 81.64 59.63 73.68 47.03" style="fill:none;stroke:#263238;stroke-linecap:round;stroke-linejoin:round"></polyline><polyline points="73.68 73.7 81.64 59.63 89.08 73.7" style="fill:none;stroke:#263238;stroke-linecap:round;stroke-linejoin:round"></polyline><polyline points="108.05 44.97 81.64 59.63 108.05 75.77" style="fill:none;stroke:#263238;stroke-linecap:round;stroke-linejoin:round"></polyline><polyline points="54.71 44.97 81.64 59.63 54.71 75.77" style="fill:none;stroke:#263238;stroke-linecap:round;stroke-linejoin:round"></polyline><line x1="65.98" y1="60.37" x2="96.78" y2="60.37" style="fill:none;stroke:#263238;stroke-linecap:round;stroke-linejoin:round"></line></g><g id="freepik--Plants--inject-199"><path d="M209.07,422.67c-.84-.95-1.61-1.95-2.4-2.94,3.52-15.28,6-29.43,4.79-45.21-2.06-2-5.69-2.16-5.51,1.55a128.92,128.92,0,0,1-3.39,38.16c-.48-.74-1-1.5-1.5-2.22a122.76,122.76,0,0,0,1.45-43.95c-2-1.92-6.06-1.86-5.62,1.71,1.57,12.58,2.21,24.49.16,37-.43-.58-.9-1.14-1.35-1.72a117.36,117.36,0,0,0-2.29-41.8c-2.12-1.66-6.28-1.47-5.58,2,2.4,11.75,4.25,23.13,3.46,35.09a20.82,20.82,0,0,0-1.52-1.45c.53-14-2.43-27.53-6.11-40.92-2.28-1.53-6.47-.88-5.68,2.4,2.78,11.44,6.72,22.39,6.76,34.21-.44-.39-.92-.74-1.38-1.12-.4-12.95-5.2-25.93-9-38.18-2.32-1.42-6.52-.48-5.66,2.68,2.89,10.63,7.42,20.72,9.11,31.51-.5-.37-1-.69-1.54-1-2.11-11.9-7.55-23.86-11.28-35.36-2.39-1.31-6.54-.16-5.68,3,2.82,10.12,6.68,19.47,9.94,29.32-.64-.25-1.32-.47-2-.71-4-11.09-8-22.18-11.63-33.37-2.44-1.24-6.49.1-5.64,3.19,2.66,9.6,6.48,18.4,9.71,27.71-.64-.23-1.32-.42-2-.62-4-10.5-7.75-21.11-11.34-31.75-2.47-1.17-6.43.29-5.57,3.34,2.57,9.12,6.1,17.52,9.32,26.32-.63-.19-1.31-.35-2-.53-3.93-10-7.44-20.23-10.95-30.41-2.43-1.06-6.42.38-5.56,3.41,2.48,8.69,5.87,16.74,9,25.11-.63-.18-1.3-.32-1.95-.49-3.75-9.62-7.3-19.33-10.58-29.13-2.69-.73-5.91.13-5.73,3.46,2.78,8,5.91,15.94,9,23.86l-1.91-.46c-3.57-9.15-7.86-18.4-10.28-27.94-2.57-.82-5.64-.27-5.84,2.93,1.91,8.09,6.06,15.49,8.95,23.25l-1.84-.5c-3.42-9.21-8.28-17.67-9.56-27.57-2.37-1.16-5.27-1.19-5.8,1.94.87,8.39,4,15.63,7.57,23.19l-2.3-.83c-4.17-9-7-17.65-6.73-27.68-1.94-2-4.59-2-5.72.79-.92,8,.83,15.49,3.58,23l-2.23-1.17A50.91,50.91,0,0,1,97.54,336c-1.63-2.34-4.19-2.94-5.66-.1-1.65,7.56-2.27,14.9-.65,22.55-.66-.49-1.29-1-1.91-1.52-1.42-9.41.69-18.05,2.75-27.18-1.49-2.59-4-3.35-5.69-.5-1.66,6.89-4,14-3.64,21.14a31.74,31.74,0,0,1-2.64-3.25c.78-6.77,3-13.3,4.71-19.89-1.11-1.93-3.13-2.69-4.42-.46-1.21,5.07-2.56,10.1-3.9,15.14-.32-.51-.64-1-.95-1.53.36-4.67.58-9.36.87-14-1.1-1.21-2.66-1.41-3.27.36-.18,3.85-.32,7.78-.44,11.6-3.13-1.19-7.76-3.78-10.49-4.72s-2.16,1.41-2,2.58c4.53,2,8.91,3.94,13.45,5.8.3.53.74,1.12,1,1.61C70,342.9,63,340.71,59,340.24s-2.35,2.71-1.84,4.18c7.18,1.43,14.13,2.77,21.18,4.41.92,1.23,2,2.51,3,3.57-6.63-.91-16.76-4.42-22.5-5.08s-2.57,4.2-1.93,6c10.53,2.3,20.66,4.68,31.27,5.76.6.5,1.48,1.08,2,1.48-7.85.42-19.82-3.37-26.37-4.21s-1.32,5.17-1,6.46c11.89,2.5,23.7,4.49,35.72,3.11.71.38,1.66.87,2.22,1.18-8.73,1.86-22.28-.23-29.79-1s-.17,5.67.25,6.7a102.07,102.07,0,0,0,38.57-1.72c.67.25,1.66.58,2.15.79-9,3.23-23.7,3.18-31.71,3.49s.71,5.63,1.1,6.56a95.33,95.33,0,0,0,38.51-7.6c.55.18,1.44.38,1.8.54-8.47,4.65-23,6.91-30.93,8.23s1,5.21,1.53,6.27c13.23-2.23,25-6.74,36.79-12.69a18.26,18.26,0,0,1,1.78.48c-7.89,4.87-22.11,9.6-29.48,11.93s.71,4.64,1.48,5.73c12.64-3.94,24-9.9,35.47-15.92.64.16,1.29.34,1.93.48-9.79,5.29-19.56,9.86-29.81,14.41-3.47,1.54-.88,4.68,2,5.06,12.14-4.92,23.59-11.59,35.26-17.55.65.16,1.32.36,2,.51-10,5.28-20.13,10.34-30.17,15.59-3.27,1.71-1.18,4.55,1.68,5,12.14-5.92,24-12.45,36.06-18.47l2,.6c-10.5,5.23-21.12,10.56-31.34,16.25-3.19,1.77-1.26,4.48,1.49,5,12.44-6.35,24.7-13.07,37.42-18.81l2,.7c-11,5.18-22.21,10.6-32.81,16.53-3.19,1.78-1.35,4.51,1.39,5.09,12.6-6.37,25.12-13.23,38.23-18.47l1.5,1a325.06,325.06,0,0,0-33.16,16c-3.1,1.68-1.61,4.55,1.16,5.26,12.28-6.21,24.61-12.17,37.4-17.23l1.34,1.06c-11,4.54-21.83,9.29-32.3,14.86-2.94,1.56-2,4.55.79,5.45,11.88-6,23.81-11.81,36.47-16,.6.56,1.17,1.16,1.72,1.76a173,173,0,0,0-30.1,12.62c-2.7,1.41-2.34,4.43.3,5.55,11-5.34,22.16-10.51,34-13.44l.84,1a134.46,134.46,0,0,0-28.41,10.67,3.13,3.13,0,0,0-.09,5.7c10.33-4.71,21.08-9.52,32.37-11.19.44.65.89,1.33,1.33,2-9.48,1.36-18.18,4.63-27,8.53-2.5,1.1-2.15,4.43,0,5.78,10.19-3.82,19.82-7.76,30.75-8.86.86,1.08,1.76,2.08,2.72,3.08Z" style="fill:#C53F3F"></path><g style="opacity:0.30000000000000004"><path d="M209.07,422.67c-.84-.95-1.61-1.95-2.4-2.94,3.52-15.28,6-29.43,4.79-45.21-2.06-2-5.69-2.16-5.51,1.55a128.92,128.92,0,0,1-3.39,38.16c-.48-.74-1-1.5-1.5-2.22a122.76,122.76,0,0,0,1.45-43.95c-2-1.92-6.06-1.86-5.62,1.71,1.57,12.58,2.21,24.49.16,37-.43-.58-.9-1.14-1.35-1.72a117.36,117.36,0,0,0-2.29-41.8c-2.12-1.66-6.28-1.47-5.58,2,2.4,11.75,4.25,23.13,3.46,35.09a20.82,20.82,0,0,0-1.52-1.45c.53-14-2.43-27.53-6.11-40.92-2.28-1.53-6.47-.88-5.68,2.4,2.78,11.44,6.72,22.39,6.76,34.21-.44-.39-.92-.74-1.38-1.12-.4-12.95-5.2-25.93-9-38.18-2.32-1.42-6.52-.48-5.66,2.68,2.89,10.63,7.42,20.72,9.11,31.51-.5-.37-1-.69-1.54-1-2.11-11.9-7.55-23.86-11.28-35.36-2.39-1.31-6.54-.16-5.68,3,2.82,10.12,6.68,19.47,9.94,29.32-.64-.25-1.32-.47-2-.71-4-11.09-8-22.18-11.63-33.37-2.44-1.24-6.49.1-5.64,3.19,2.66,9.6,6.48,18.4,9.71,27.71-.64-.23-1.32-.42-2-.62-4-10.5-7.75-21.11-11.34-31.75-2.47-1.17-6.43.29-5.57,3.34,2.57,9.12,6.1,17.52,9.32,26.32-.63-.19-1.31-.35-2-.53-3.93-10-7.44-20.23-10.95-30.41-2.43-1.06-6.42.38-5.56,3.41,2.48,8.69,5.87,16.74,9,25.11-.63-.18-1.3-.32-1.95-.49-3.75-9.62-7.3-19.33-10.58-29.13-2.69-.73-5.91.13-5.73,3.46,2.78,8,5.91,15.94,9,23.86l-1.91-.46c-3.57-9.15-7.86-18.4-10.28-27.94-2.57-.82-5.64-.27-5.84,2.93,1.91,8.09,6.06,15.49,8.95,23.25l-1.84-.5c-3.42-9.21-8.28-17.67-9.56-27.57-2.37-1.16-5.27-1.19-5.8,1.94.87,8.39,4,15.63,7.57,23.19l-2.3-.83c-4.17-9-7-17.65-6.73-27.68-1.94-2-4.59-2-5.72.79-.92,8,.83,15.49,3.58,23l-2.23-1.17A50.91,50.91,0,0,1,97.54,336c-1.63-2.34-4.19-2.94-5.66-.1-1.65,7.56-2.27,14.9-.65,22.55-.66-.49-1.29-1-1.91-1.52-1.42-9.41.69-18.05,2.75-27.18-1.49-2.59-4-3.35-5.69-.5-1.66,6.89-4,14-3.64,21.14a31.74,31.74,0,0,1-2.64-3.25c.78-6.77,3-13.3,4.71-19.89-1.11-1.93-3.13-2.69-4.42-.46-1.21,5.07-2.56,10.1-3.9,15.14-.32-.51-.64-1-.95-1.53.36-4.67.58-9.36.87-14-1.1-1.21-2.66-1.41-3.27.36-.18,3.85-.32,7.78-.44,11.6-3.13-1.19-7.76-3.78-10.49-4.72s-2.16,1.41-2,2.58c4.53,2,8.91,3.94,13.45,5.8.3.53.74,1.12,1,1.61C70,342.9,63,340.71,59,340.24s-2.35,2.71-1.84,4.18c7.18,1.43,14.13,2.77,21.18,4.41.92,1.23,2,2.51,3,3.57-6.63-.91-16.76-4.42-22.5-5.08s-2.57,4.2-1.93,6c10.53,2.3,20.66,4.68,31.27,5.76.6.5,1.48,1.08,2,1.48-7.85.42-19.82-3.37-26.37-4.21s-1.32,5.17-1,6.46c11.89,2.5,23.7,4.49,35.72,3.11.71.38,1.66.87,2.22,1.18-8.73,1.86-22.28-.23-29.79-1s-.17,5.67.25,6.7a102.07,102.07,0,0,0,38.57-1.72c.67.25,1.66.58,2.15.79-9,3.23-23.7,3.18-31.71,3.49s.71,5.63,1.1,6.56a95.33,95.33,0,0,0,38.51-7.6c.55.18,1.44.38,1.8.54-8.47,4.65-23,6.91-30.93,8.23s1,5.21,1.53,6.27c13.23-2.23,25-6.74,36.79-12.69a18.26,18.26,0,0,1,1.78.48c-7.89,4.87-22.11,9.6-29.48,11.93s.71,4.64,1.48,5.73c12.64-3.94,24-9.9,35.47-15.92.64.16,1.29.34,1.93.48-9.79,5.29-19.56,9.86-29.81,14.41-3.47,1.54-.88,4.68,2,5.06,12.14-4.92,23.59-11.59,35.26-17.55.65.16,1.32.36,2,.51-10,5.28-20.13,10.34-30.17,15.59-3.27,1.71-1.18,4.55,1.68,5,12.14-5.92,24-12.45,36.06-18.47l2,.6c-10.5,5.23-21.12,10.56-31.34,16.25-3.19,1.77-1.26,4.48,1.49,5,12.44-6.35,24.7-13.07,37.42-18.81l2,.7c-11,5.18-22.21,10.6-32.81,16.53-3.19,1.78-1.35,4.51,1.39,5.09,12.6-6.37,25.12-13.23,38.23-18.47l1.5,1a325.06,325.06,0,0,0-33.16,16c-3.1,1.68-1.61,4.55,1.16,5.26,12.28-6.21,24.61-12.17,37.4-17.23l1.34,1.06c-11,4.54-21.83,9.29-32.3,14.86-2.94,1.56-2,4.55.79,5.45,11.88-6,23.81-11.81,36.47-16,.6.56,1.17,1.16,1.72,1.76a173,173,0,0,0-30.1,12.62c-2.7,1.41-2.34,4.43.3,5.55,11-5.34,22.16-10.51,34-13.44l.84,1a134.46,134.46,0,0,0-28.41,10.67,3.13,3.13,0,0,0-.09,5.7c10.33-4.71,21.08-9.52,32.37-11.19.44.65.89,1.33,1.33,2-9.48,1.36-18.18,4.63-27,8.53-2.5,1.1-2.15,4.43,0,5.78,10.19-3.82,19.82-7.76,30.75-8.86.86,1.08,1.76,2.08,2.72,3.08Z" style="fill:#fff"></path></g><path d="M345.6,430.4c.5-1.44.92-2.9,1.35-4.37-10.87-15.49-20.06-30.19-25.86-48.39,1.4-3.16,5.39-5,6.87-.77,5.27,15,11.74,28.28,21.1,41.15.19-1,.4-2.13.67-3.17a148.21,148.21,0,0,1-21.56-48.5c1.43-3.08,5.94-4.83,7.06-.64,3.95,14.78,8.64,28.4,16.61,41.5.23-.85.5-1.69.74-2.54a141.51,141.51,0,0,1-16.4-47.79c1.62-2.82,6.36-4.5,7.13-.35,2.65,14.23,5.73,27.8,12,40.82a22.93,22.93,0,0,1,1-2.32c-6.94-15.41-9.77-31.88-11.72-48.53,1.85-2.75,6.84-3.92,7.43.11,2.08,14.05,2.64,28.08,7.95,41.32.32-.63.7-1.25,1-1.87-5.42-14.67-5.94-31.37-7.22-46.8,1.94-2.64,7.07-3.49,7.54.43,1.59,13.2,1.09,26.54,4.1,39.37.39-.63.84-1.23,1.25-1.85-3-14.27-2.37-30.11-3.41-44.67,2.07-2.55,7.25-3.14,7.69.74,1.44,12.59,1.36,24.8,2.17,37.3.61-.57,1.27-1.13,1.9-1.69-.58-14.21-1.12-28.44-2.12-42.6,2.16-2.5,7.3-2.83,7.75,1,1.38,11.95,1.1,23.53,1.7,35.4.62-.54,1.29-1.07,1.95-1.58-.28-13.58-.91-27.14-1.72-40.67,2.23-2.42,7.32-2.59,7.74,1.21,1.26,11.38,1.13,22.37,1.51,33.67.62-.5,1.31-1,2-1.48-.17-13-.86-26-1.54-39,2.23-2.29,7.35-2.48,7.75,1.3,1.17,10.84,1,21.39,1.31,32.17.62-.48,1.3-.95,1.95-1.43-.17-12.46-.6-24.94-1.37-37.37,2.67-2,6.67-2.54,8,1.26.54,10.25.62,20.52.77,30.77l1.93-1.38c-.16-11.86.45-24.15-1.18-35.92,2.51-2.07,6.19-2.86,7.86.63,1.53,9.92.25,20.08.54,30.07l1.83-1.39c-.35-11.85,1.25-23.53-1.81-35.18,2.12-2.37,5.36-3.72,7.37-.46,2.84,9.78,2.6,19.3,2.05,29.37.74-.65,1.46-1.31,2.19-2,.57-12-.22-22.89-5-34,1.25-3.14,4.21-4.37,6.75-1.71,4.65,8.52,6.1,17.71,6.4,27.29l2-2.31c-.77-11.57-3.95-22.15-10.59-31.75.77-3.36,3.35-5.19,6.29-2.68,5.27,7.71,9.3,15.64,10.95,24.92.51-.84,1-1.68,1.44-2.56-2.67-11.17-8.95-19.87-15.39-29.15.48-3.57,2.93-5.55,6.13-3.13,5,6.94,10.88,13.79,13.66,22a39.14,39.14,0,0,0,1.48-4.84c-3.94-7.22-9.36-13.53-14.29-20.11.36-2.66,2.28-4.43,4.74-2.52,3.65,5.12,7.44,10.14,11.23,15.16.12-.71.24-1.42.37-2.14-2.53-5.06-4.89-10.2-7.35-15.3.68-1.86,2.34-2.79,3.83-1.09,1.94,4.24,3.89,8.56,5.75,12.78,3-2.75,7-7.74,9.59-10s3.06.61,3.43,2c-4.16,4.31-8.18,8.46-12.41,12.59-.1.73-.32,1.59-.35,2.24,4.85-2.81,11.69-8.43,15.93-10.76s3.86,2,3.95,3.84c-7.38,4.86-14.55,9.51-21.69,14.54-.47,1.79-1.16,3.73-1.7,5.34,7-4,16.74-12.54,22.87-15.89s4.77,3.54,4.85,5.79c-10.73,7.36-21,14.6-32.36,20.63-.44.83-1.16,1.87-1.51,2.55,9-3.1,20.63-12.76,27.57-16.67s3.82,5.18,4.05,6.78c-12.17,8.19-24.48,15.77-38.55,19.67-.62.74-1.47,1.73-1.95,2.32,10.61-1.87,24.82-10.35,32.87-14.61s2.76,6.27,2.76,7.61a123,123,0,0,1-43.92,15.56c-.63.59-1.59,1.4-2.05,1.86,11.57-.48,27.95-7.18,37.06-10.47s1.75,6.61,1.74,7.83a115,115,0,0,1-46.52,9c-.54.45-1.43,1.07-1.77,1.42,11.59,1.36,28.82-2.68,38.33-4.81s1.2,6.29,1.12,7.7c-15.8,3.5-31.05,3.82-46.9,2.49a20.93,20.93,0,0,0-1.76,1.34c11,1.88,29.07.71,38.38,0s1.31,5.51.94,7.08c-15.92,1.32-31.29-.21-46.9-1.72-.64.46-1.28,1-1.94,1.4,13.36,1.48,26.35,2.16,39.88,2.6,4.59.16,3.11,4.84,0,6.58-15.81,0-31.65-2.26-47.4-3.64-.65.48-1.31,1-2,1.47,13.6,1.36,27.21,2.44,40.82,3.76,4.42.42,3.37,4.55.38,6.34-16.26-1.11-32.46-3.06-48.72-4.31l-2,1.58c14.12,1.09,28.41,2.23,42.42,4,4.38.54,3.44,4.45.62,6.32-16.79-1.45-33.54-3.42-50.38-4.06L374.86,373c14.7.78,29.65,1.79,44.19,3.61,4.37.55,3.56,4.43.75,6.33-17-1.42-34.09-3.41-51.13-3.33l-1.22,1.82a390.58,390.58,0,0,1,44.34,2.85c4.23.47,3.87,4.35,1.08,6.4-16.55-1.38-33-2.46-49.63-2.32-.35.6-.69,1.22-1,1.81,14.33.09,28.63.49,42.88,2,4,.42,4.29,4.2,1.58,6.46-16-1.31-32-2.41-48-1.34-.42.89-.79,1.82-1.13,2.74a208.92,208.92,0,0,1,39.38.47c3.67.36,4.64,3.89,2.19,6.35-14.69-1-29.55-1.71-44.17.4-.16.52-.32,1.06-.47,1.56a162.42,162.42,0,0,1,36.61-1c3.44.26,4.68,3.78,2.68,6.34-13.68-.58-27.88-1.09-41.28,2.16-.19.93-.38,1.89-.58,2.81,11.22-2.78,22.43-3.06,34-2.69,3.3.11,4.42,4,2.62,6.47-13.12.35-25.68.31-38.4,4-.48,1.6-1,3.14-1.65,4.68C347.49,431.18,346.54,430.8,345.6,430.4Z" style="fill:#C53F3F"></path><g style="opacity:0.30000000000000004"><path d="M345.6,430.4c.5-1.44.92-2.9,1.35-4.37-10.87-15.49-20.06-30.19-25.86-48.39,1.4-3.16,5.39-5,6.87-.77,5.27,15,11.74,28.28,21.1,41.15.19-1,.4-2.13.67-3.17a148.21,148.21,0,0,1-21.56-48.5c1.43-3.08,5.94-4.83,7.06-.64,3.95,14.78,8.64,28.4,16.61,41.5.23-.85.5-1.69.74-2.54a141.51,141.51,0,0,1-16.4-47.79c1.62-2.82,6.36-4.5,7.13-.35,2.65,14.23,5.73,27.8,12,40.82a22.93,22.93,0,0,1,1-2.32c-6.94-15.41-9.77-31.88-11.72-48.53,1.85-2.75,6.84-3.92,7.43.11,2.08,14.05,2.64,28.08,7.95,41.32.32-.63.7-1.25,1-1.87-5.42-14.67-5.94-31.37-7.22-46.8,1.94-2.64,7.07-3.49,7.54.43,1.59,13.2,1.09,26.54,4.1,39.37.39-.63.84-1.23,1.25-1.85-3-14.27-2.37-30.11-3.41-44.67,2.07-2.55,7.25-3.14,7.69.74,1.44,12.59,1.36,24.8,2.17,37.3.61-.57,1.27-1.13,1.9-1.69-.58-14.21-1.12-28.44-2.12-42.6,2.16-2.5,7.3-2.83,7.75,1,1.38,11.95,1.1,23.53,1.7,35.4.62-.54,1.29-1.07,1.95-1.58-.28-13.58-.91-27.14-1.72-40.67,2.23-2.42,7.32-2.59,7.74,1.21,1.26,11.38,1.13,22.37,1.51,33.67.62-.5,1.31-1,2-1.48-.17-13-.86-26-1.54-39,2.23-2.29,7.35-2.48,7.75,1.3,1.17,10.84,1,21.39,1.31,32.17.62-.48,1.3-.95,1.95-1.43-.17-12.46-.6-24.94-1.37-37.37,2.67-2,6.67-2.54,8,1.26.54,10.25.62,20.52.77,30.77l1.93-1.38c-.16-11.86.45-24.15-1.18-35.92,2.51-2.07,6.19-2.86,7.86.63,1.53,9.92.25,20.08.54,30.07l1.83-1.39c-.35-11.85,1.25-23.53-1.81-35.18,2.12-2.37,5.36-3.72,7.37-.46,2.84,9.78,2.6,19.3,2.05,29.37.74-.65,1.46-1.31,2.19-2,.57-12-.22-22.89-5-34,1.25-3.14,4.21-4.37,6.75-1.71,4.65,8.52,6.1,17.71,6.4,27.29l2-2.31c-.77-11.57-3.95-22.15-10.59-31.75.77-3.36,3.35-5.19,6.29-2.68,5.27,7.71,9.3,15.64,10.95,24.92.51-.84,1-1.68,1.44-2.56-2.67-11.17-8.95-19.87-15.39-29.15.48-3.57,2.93-5.55,6.13-3.13,5,6.94,10.88,13.79,13.66,22a39.14,39.14,0,0,0,1.48-4.84c-3.94-7.22-9.36-13.53-14.29-20.11.36-2.66,2.28-4.43,4.74-2.52,3.65,5.12,7.44,10.14,11.23,15.16.12-.71.24-1.42.37-2.14-2.53-5.06-4.89-10.2-7.35-15.3.68-1.86,2.34-2.79,3.83-1.09,1.94,4.24,3.89,8.56,5.75,12.78,3-2.75,7-7.74,9.59-10s3.06.61,3.43,2c-4.16,4.31-8.18,8.46-12.41,12.59-.1.73-.32,1.59-.35,2.24,4.85-2.81,11.69-8.43,15.93-10.76s3.86,2,3.95,3.84c-7.38,4.86-14.55,9.51-21.69,14.54-.47,1.79-1.16,3.73-1.7,5.34,7-4,16.74-12.54,22.87-15.89s4.77,3.54,4.85,5.79c-10.73,7.36-21,14.6-32.36,20.63-.44.83-1.16,1.87-1.51,2.55,9-3.1,20.63-12.76,27.57-16.67s3.82,5.18,4.05,6.78c-12.17,8.19-24.48,15.77-38.55,19.67-.62.74-1.47,1.73-1.95,2.32,10.61-1.87,24.82-10.35,32.87-14.61s2.76,6.27,2.76,7.61a123,123,0,0,1-43.92,15.56c-.63.59-1.59,1.4-2.05,1.86,11.57-.48,27.95-7.18,37.06-10.47s1.75,6.61,1.74,7.83a115,115,0,0,1-46.52,9c-.54.45-1.43,1.07-1.77,1.42,11.59,1.36,28.82-2.68,38.33-4.81s1.2,6.29,1.12,7.7c-15.8,3.5-31.05,3.82-46.9,2.49a20.93,20.93,0,0,0-1.76,1.34c11,1.88,29.07.71,38.38,0s1.31,5.51.94,7.08c-15.92,1.32-31.29-.21-46.9-1.72-.64.46-1.28,1-1.94,1.4,13.36,1.48,26.35,2.16,39.88,2.6,4.59.16,3.11,4.84,0,6.58-15.81,0-31.65-2.26-47.4-3.64-.65.48-1.31,1-2,1.47,13.6,1.36,27.21,2.44,40.82,3.76,4.42.42,3.37,4.55.38,6.34-16.26-1.11-32.46-3.06-48.72-4.31l-2,1.58c14.12,1.09,28.41,2.23,42.42,4,4.38.54,3.44,4.45.62,6.32-16.79-1.45-33.54-3.42-50.38-4.06L374.86,373c14.7.78,29.65,1.79,44.19,3.61,4.37.55,3.56,4.43.75,6.33-17-1.42-34.09-3.41-51.13-3.33l-1.22,1.82a390.58,390.58,0,0,1,44.34,2.85c4.23.47,3.87,4.35,1.08,6.4-16.55-1.38-33-2.46-49.63-2.32-.35.6-.69,1.22-1,1.81,14.33.09,28.63.49,42.88,2,4,.42,4.29,4.2,1.58,6.46-16-1.31-32-2.41-48-1.34-.42.89-.79,1.82-1.13,2.74a208.92,208.92,0,0,1,39.38.47c3.67.36,4.64,3.89,2.19,6.35-14.69-1-29.55-1.71-44.17.4-.16.52-.32,1.06-.47,1.56a162.42,162.42,0,0,1,36.61-1c3.44.26,4.68,3.78,2.68,6.34-13.68-.58-27.88-1.09-41.28,2.16-.19.93-.38,1.89-.58,2.81,11.22-2.78,22.43-3.06,34-2.69,3.3.11,4.42,4,2.62,6.47-13.12.35-25.68.31-38.4,4-.48,1.6-1,3.14-1.65,4.68C347.49,431.18,346.54,430.8,345.6,430.4Z" style="fill:#fff"></path></g><path d="M273.85,374.28c.63-1.73,1.16-3.49,1.7-5.24-12.82-18.83-23.65-36.68-30.33-58.69,1.75-3.77,6.57-5.92,8.29-.81,6.09,18.12,13.66,34.24,24.71,49.89.25-1.26.52-2.55.86-3.8-12.15-18.2-20.05-37.51-25.14-58.74,1.77-3.69,7.22-5.73,8.5-.66,4.52,17.86,9.94,34.33,19.31,50.23.29-1,.63-2,.93-3-9.62-18.17-16.26-37.38-18.95-57.81,2-3.36,7.74-5.3,8.6-.3,2.95,17.17,6.43,33.56,13.81,49.34a29.22,29.22,0,0,1,1.3-2.78c-8.1-18.66-11.23-38.54-13.3-58.61,2.28-3.29,8.29-4.61,8.95.25,2.27,16.95,2.7,33.86,8.88,49.88.39-.76.86-1.49,1.28-2.24-6.28-17.75-6.62-37.85-7.92-56.45,2.39-3.15,8.57-4.09,9.07.64,1.69,15.92.88,32,4.29,47.46.48-.75,1-1.47,1.53-2.21-3.41-17.23-2.35-36.28-3.36-53.82,2.54-3,8.77-3.67,9.24,1,1.53,15.17,1.23,29.86,2,44.93.74-.68,1.55-1.33,2.31-2-.46-17.12-.87-34.26-1.84-51.32,2.65-3,8.84-3.28,9.31,1.34,1.46,14.4.93,28.33,1.46,42.64.75-.65,1.57-1.27,2.37-1.88-.1-16.34-.65-32.67-1.4-49,2.74-2.88,8.87-3,9.31,1.59,1.32,13.71,1,26.94,1.25,40.55.76-.59,1.6-1.16,2.39-1.74,0-15.67-.6-31.33-1.21-47,2.72-2.72,8.89-2.87,9.31,1.69,1.22,13.06.88,25.76,1,38.75.75-.58,1.59-1.13,2.37-1.69,0-15-.3-30-1-45,3.26-2.4,8.07-2.94,9.58,1.66.47,12.34.41,24.7.42,37.05l2.34-1.63c0-14.28.94-29.07-.82-43.25,3.05-2.46,7.49-3.35,9.45.88,1.68,12,0,24.18.14,36.2.75-.54,1.49-1.09,2.23-1.64-.22-14.27,1.9-28.3-1.59-42.37,2.59-2.82,6.51-4.39,8.88-.44,3.25,11.82,2.81,23.28,2,35.4.9-.78,1.78-1.57,2.67-2.35.88-14.42.11-27.55-5.48-41,1.56-3.75,5.14-5.19,8.15-1.95,5.46,10.33,7.05,21.42,7.26,33l2.41-2.76c-.73-13.93-4.39-26.73-12.23-38.39,1-4,4.12-6.19,7.63-3.12,6.21,9.37,10.92,19,12.76,30.18.63-1,1.23-2,1.78-3.05-3-13.5-10.45-24.08-18-35.36.63-4.29,3.61-6.63,7.42-3.67,5.88,8.45,12.87,16.78,16.08,26.7a45.51,45.51,0,0,0,1.86-5.8c-4.62-8.75-11-16.43-16.86-24.44.48-3.2,2.82-5.3,5.74-3,4.31,6.23,8.79,12.33,13.27,18.44l.48-2.57c-3-6.14-5.72-12.36-8.59-18.54.85-2.22,2.87-3.32,4.63-1.25,2.27,5.13,4.53,10.37,6.71,15.48,3.6-3.26,8.51-9.21,11.71-11.92s3.67.77,4.09,2.42c-5.07,5.12-10,10.05-15.14,15-.14.88-.42,1.91-.47,2.69,5.89-3.29,14.22-10,19.36-12.69s4.61,2.43,4.69,4.69c-9,5.73-17.66,11.2-26.35,17.15-.59,2.14-1.45,4.47-2.14,6.4,8.5-4.73,20.37-14.82,27.8-18.75s5.68,4.34,5.75,7.05c-13,8.68-25.5,17.23-39.31,24.3-.54,1-1.42,2.23-1.86,3,10.84-3.57,25.05-15,33.48-19.6s4.51,6.3,4.75,8.22c-14.78,9.66-29.72,18.58-46.73,23.05-.76.88-1.79,2-2.38,2.76,12.8-2.08,30.05-12,39.81-17s3.22,7.59,3.19,9.21a148,148,0,0,1-53.13,18c-.77.71-1.93,1.67-2.49,2.2,13.93-.38,33.76-8.17,44.78-12s2,8,2,9.45a138.23,138.23,0,0,1-56.14,10c-.66.53-1.75,1.27-2.16,1.68,13.93,1.83,34.74-2.74,46.22-5.16s1.35,7.6,1.23,9.29c-19.08,3.95-37.45,4.08-56.5,2.23a22.83,22.83,0,0,0-2.15,1.58c13.25,2.44,35,1.33,46.2.61s1.49,6.65,1,8.54c-19.19,1.32-37.67-.78-56.43-2.85-.77.54-1.56,1.13-2.36,1.66,16.06,2,31.69,3,48,3.79,5.52.26,3.66,5.87-.08,7.92-19-.26-38.06-3.25-57-5.17-.8.57-1.6,1.18-2.4,1.73,16.35,1.87,32.71,3.39,49.07,5.2,5.32.59,4,5.54.36,7.64-19.56-1.6-39-4.21-58.58-6-.79.62-1.59,1.26-2.37,1.86,17,1.55,34.16,3.17,51,5.48,5.27.72,4.08,5.41.65,7.62-20.19-2-40.32-4.67-60.58-5.73l-2.31,2c17.68,1.19,35.66,2.66,53.14,5.09,5.25.73,4.21,5.39.8,7.62-20.42-2-41-4.67-61.5-4.85-.49.72-1,1.47-1.49,2.17,17.72.18,35.8,2,53.32,4.16,5.08.64,4.59,5.31,1.2,7.73-19.9-1.94-39.73-3.51-59.72-3.61l-1.26,2.15c17.25.35,34.46,1.07,51.58,3.08,4.79.56,5.1,5.12,1.8,7.8-19.24-1.84-38.47-3.43-57.81-2.42-.52,1.08-1,2.19-1.41,3.28A252.06,252.06,0,0,1,336.09,339c4.4.48,5.52,4.76,2.53,7.67-17.67-1.44-35.55-2.54-53.19-.24-.2.61-.39,1.26-.59,1.86a196.39,196.39,0,0,1,44.09-.54c4.13.37,5.57,4.62,3.13,7.68-16.46-.93-33.55-1.78-49.73,1.91-.25,1.12-.49,2.27-.75,3.37,13.55-3.15,27.05-3.31,41-2.67,4,.19,5.25,4.87,3.05,7.83-15.81.21-30.93-.05-46.3,4.22-.6,1.91-1.29,3.75-2.06,5.61Z" style="fill:#C53F3F"></path><g style="opacity:0.30000000000000004"><path d="M273.85,374.28c.63-1.73,1.16-3.49,1.7-5.24-12.82-18.83-23.65-36.68-30.33-58.69,1.75-3.77,6.57-5.92,8.29-.81,6.09,18.12,13.66,34.24,24.71,49.89.25-1.26.52-2.55.86-3.8-12.15-18.2-20.05-37.51-25.14-58.74,1.77-3.69,7.22-5.73,8.5-.66,4.52,17.86,9.94,34.33,19.31,50.23.29-1,.63-2,.93-3-9.62-18.17-16.26-37.38-18.95-57.81,2-3.36,7.74-5.3,8.6-.3,2.95,17.17,6.43,33.56,13.81,49.34a29.22,29.22,0,0,1,1.3-2.78c-8.1-18.66-11.23-38.54-13.3-58.61,2.28-3.29,8.29-4.61,8.95.25,2.27,16.95,2.7,33.86,8.88,49.88.39-.76.86-1.49,1.28-2.24-6.28-17.75-6.62-37.85-7.92-56.45,2.39-3.15,8.57-4.09,9.07.64,1.69,15.92.88,32,4.29,47.46.48-.75,1-1.47,1.53-2.21-3.41-17.23-2.35-36.28-3.36-53.82,2.54-3,8.77-3.67,9.24,1,1.53,15.17,1.23,29.86,2,44.93.74-.68,1.55-1.33,2.31-2-.46-17.12-.87-34.26-1.84-51.32,2.65-3,8.84-3.28,9.31,1.34,1.46,14.4.93,28.33,1.46,42.64.75-.65,1.57-1.27,2.37-1.88-.1-16.34-.65-32.67-1.4-49,2.74-2.88,8.87-3,9.31,1.59,1.32,13.71,1,26.94,1.25,40.55.76-.59,1.6-1.16,2.39-1.74,0-15.67-.6-31.33-1.21-47,2.72-2.72,8.89-2.87,9.31,1.69,1.22,13.06.88,25.76,1,38.75.75-.58,1.59-1.13,2.37-1.69,0-15-.3-30-1-45,3.26-2.4,8.07-2.94,9.58,1.66.47,12.34.41,24.7.42,37.05l2.34-1.63c0-14.28.94-29.07-.82-43.25,3.05-2.46,7.49-3.35,9.45.88,1.68,12,0,24.18.14,36.2.75-.54,1.49-1.09,2.23-1.64-.22-14.27,1.9-28.3-1.59-42.37,2.59-2.82,6.51-4.39,8.88-.44,3.25,11.82,2.81,23.28,2,35.4.9-.78,1.78-1.57,2.67-2.35.88-14.42.11-27.55-5.48-41,1.56-3.75,5.14-5.19,8.15-1.95,5.46,10.33,7.05,21.42,7.26,33l2.41-2.76c-.73-13.93-4.39-26.73-12.23-38.39,1-4,4.12-6.19,7.63-3.12,6.21,9.37,10.92,19,12.76,30.18.63-1,1.23-2,1.78-3.05-3-13.5-10.45-24.08-18-35.36.63-4.29,3.61-6.63,7.42-3.67,5.88,8.45,12.87,16.78,16.08,26.7a45.51,45.51,0,0,0,1.86-5.8c-4.62-8.75-11-16.43-16.86-24.44.48-3.2,2.82-5.3,5.74-3,4.31,6.23,8.79,12.33,13.27,18.44l.48-2.57c-3-6.14-5.72-12.36-8.59-18.54.85-2.22,2.87-3.32,4.63-1.25,2.27,5.13,4.53,10.37,6.71,15.48,3.6-3.26,8.51-9.21,11.71-11.92s3.67.77,4.09,2.42c-5.07,5.12-10,10.05-15.14,15-.14.88-.42,1.91-.47,2.69,5.89-3.29,14.22-10,19.36-12.69s4.61,2.43,4.69,4.69c-9,5.73-17.66,11.2-26.35,17.15-.59,2.14-1.45,4.47-2.14,6.4,8.5-4.73,20.37-14.82,27.8-18.75s5.68,4.34,5.75,7.05c-13,8.68-25.5,17.23-39.31,24.3-.54,1-1.42,2.23-1.86,3,10.84-3.57,25.05-15,33.48-19.6s4.51,6.3,4.75,8.22c-14.78,9.66-29.72,18.58-46.73,23.05-.76.88-1.79,2-2.38,2.76,12.8-2.08,30.05-12,39.81-17s3.22,7.59,3.19,9.21a148,148,0,0,1-53.13,18c-.77.71-1.93,1.67-2.49,2.2,13.93-.38,33.76-8.17,44.78-12s2,8,2,9.45a138.23,138.23,0,0,1-56.14,10c-.66.53-1.75,1.27-2.16,1.68,13.93,1.83,34.74-2.74,46.22-5.16s1.35,7.6,1.23,9.29c-19.08,3.95-37.45,4.08-56.5,2.23a22.83,22.83,0,0,0-2.15,1.58c13.25,2.44,35,1.33,46.2.61s1.49,6.65,1,8.54c-19.19,1.32-37.67-.78-56.43-2.85-.77.54-1.56,1.13-2.36,1.66,16.06,2,31.69,3,48,3.79,5.52.26,3.66,5.87-.08,7.92-19-.26-38.06-3.25-57-5.17-.8.57-1.6,1.18-2.4,1.73,16.35,1.87,32.71,3.39,49.07,5.2,5.32.59,4,5.54.36,7.64-19.56-1.6-39-4.21-58.58-6-.79.62-1.59,1.26-2.37,1.86,17,1.55,34.16,3.17,51,5.48,5.27.72,4.08,5.41.65,7.62-20.19-2-40.32-4.67-60.58-5.73l-2.31,2c17.68,1.19,35.66,2.66,53.14,5.09,5.25.73,4.21,5.39.8,7.62-20.42-2-41-4.67-61.5-4.85-.49.72-1,1.47-1.49,2.17,17.72.18,35.8,2,53.32,4.16,5.08.64,4.59,5.31,1.2,7.73-19.9-1.94-39.73-3.51-59.72-3.61l-1.26,2.15c17.25.35,34.46,1.07,51.58,3.08,4.79.56,5.1,5.12,1.8,7.8-19.24-1.84-38.47-3.43-57.81-2.42-.52,1.08-1,2.19-1.41,3.28A252.06,252.06,0,0,1,336.09,339c4.4.48,5.52,4.76,2.53,7.67-17.67-1.44-35.55-2.54-53.19-.24-.2.61-.39,1.26-.59,1.86a196.39,196.39,0,0,1,44.09-.54c4.13.37,5.57,4.62,3.13,7.68-16.46-.93-33.55-1.78-49.73,1.91-.25,1.12-.49,2.27-.75,3.37,13.55-3.15,27.05-3.31,41-2.67,4,.19,5.25,4.87,3.05,7.83-15.81.21-30.93-.05-46.3,4.22-.6,1.91-1.29,3.75-2.06,5.61Z" style="fill:#fff"></path></g><path d="M213.71,213.56c1.54-1,3.14-1.91,4.72-2.83,21.23,8.29,41,14.86,64,16.45,3.29-2.55,4.3-7.73-1.06-8.26-19-1.89-36.43-5.66-54.15-12.94,1.17-.53,2.37-1.07,3.51-1.68,20.45,7.77,41,11.15,62.87,11.37,3.2-2.55,4-8.32-1.26-8.44-18.42-.4-35.68-2-53.27-7.59.92-.5,1.83-1.06,2.75-1.58,19.86,5.31,40.07,7.49,60.59,5.54,2.82-2.7,3.43-8.72-1.63-8.44-17.4,1-34.15,1.23-51.18-2.43a29,29,0,0,0,2.41-1.89c20,3.72,40.08,2.33,60.11-.14,2.69-2.95,2.63-9.11-2.25-8.66-17,1.57-33.6,4.93-50.6,2.49.65-.56,1.26-1.17,1.9-1.75,18.7,2.16,38.37-2,56.78-4.9,2.54-3,2.08-9.27-2.64-8.7-15.9,1.91-31.36,6.29-47.22,6.43.62-.63,1.2-1.33,1.81-2,17.55-.52,35.89-5.81,53.22-8.75,2.39-3.16,1.6-9.37-3.07-8.78-15.13,1.9-29.38,5.48-44.24,8.09.5-.87.95-1.8,1.44-2.7,16.78-3.37,33.58-6.81,50.43-9.67,2.3-3.24,1.22-9.35-3.39-8.78-14.36,1.79-27.82,5.43-41.89,8.11.46-.88.88-1.82,1.3-2.73,16-3.55,32-6.67,48.05-9.59,2.2-3.3.94-9.3-3.62-8.71-13.66,1.78-26.48,5.06-39.81,7.84.41-.87.78-1.81,1.17-2.71,15.26-3.52,30.66-6.42,46-9.32,2-3.26.81-9.3-3.73-8.7-13,1.73-25.31,4.9-38,7.65.39-.86.74-1.8,1.12-2.69,14.62-3.36,29.33-6.42,44.1-9.06,1.62-3.71,1.07-8.52-3.75-9-12.14,2.29-24.17,5.12-36.21,7.87.36-.88.71-1.76,1.07-2.65,13.91-3.19,28.12-7.41,42.34-8.86,1.71-3.53,1.58-8-3-9-12,1-23.55,5.44-35.32,8l1.11-2.54c14-3,27.16-8.17,41.66-7.91,2.16-3.16,2.82-7.33-1.57-8.76-12.24-.52-23.31,2.47-34.94,6,.55-1,1.13-2.08,1.69-3.12C326,79,338.93,76.83,353.31,79.27c3.31-2.36,3.91-6.17.07-8.38-11.28-3-22.45-2.08-33.75.29.72-1,1.43-2,2.15-3,13.75-2.4,27-1.7,40.15,3.34,3.71-1.86,5.12-5.41,1.34-8.13-10.52-4-20.94-6.41-32.27-5.7.84-.84,1.68-1.64,2.58-2.42,13.83-.05,25.8,4.81,38.49,9.69,4-1.58,5.66-5,1.92-8.06-9.55-3.84-19.23-8.79-29.62-9.71a47.53,47.53,0,0,1,5.24-3.11c9.56,2.56,18.49,7.1,27.59,11,3-1.19,4.54-3.93,1.6-6.26-7-2.81-14-5.81-20.94-8.81l2.4-1c6.64,1.51,13.32,2.81,20,4.22,2-1.32,2.6-3.53.18-4.78-5.5-1.07-11.12-2.11-16.58-3.09,2.37-4.24,7.07-10.35,9-14.07s-1.58-3.41-3.28-3.45c-3.85,6.09-7.56,12-11.18,18.1-.83.33-1.77.83-2.52,1,1.9-6.47,6.52-16.07,8-21.7s-3.4-3.95-5.62-3.53c-3.58,10-7,19.73-10.82,29.52-2,1.06-4,2.42-5.76,3.52,2.71-9.35,9.89-23.16,12.06-31.29s-5.5-4.57-8.16-4c-5.54,14.65-11.09,28.7-14.89,43.74-.85.75-1.86,1.89-2.55,2.49,1.06-11.36,9-27.77,11.63-37s-7.15-3-9.08-2.8c-6.11,16.57-11.46,33.13-12,50.71-.69.93-1.6,2.2-2.16,2.93-.83-12.94,5-32,7.72-42.61s-8.12-1.44-9.69-1.05a147.94,147.94,0,0,0-5.67,55.8c-.51.92-1.19,2.26-1.59,2.93-2.74-13.66.43-34.74,1.68-46.33s-8.24-.16-9.66.2a138.27,138.27,0,0,0,2.79,57c-.37.76-.85,2-1.15,2.49-4.9-13.17-5.1-34.48-5.31-46.21s-7.71.39-9.33.88c.41,19.48,4.39,37.41,10.46,55.57a25.46,25.46,0,0,1-1.06,2.45c-5.34-12.37-9.12-33.81-10.93-44.9s-6.81,0-8.55.92c3,19,9.18,36.54,15.4,54.35-.36.88-.76,1.78-1.09,2.68-5.54-15.2-10-30.21-14.42-45.91-1.49-5.32-6.54-2.25-7.7,1.85,4.5,18.49,11.67,36.37,17.78,54.4-.38.9-.8,1.82-1.16,2.72-5.47-15.52-10.61-31.13-16-46.67-1.77-5-6.3-2.65-7.53,1.36,5.94,18.71,12.83,37.1,18.93,55.75-.42.91-.87,1.84-1.28,2.74-5.3-16.2-10.72-32.59-16.74-48.48-1.88-5-6.18-2.77-7.57,1.07,6.49,19.22,13.56,38.26,19.13,57.77L272.55,163c-5.11-17-10.56-34.17-16.83-50.66-1.89-5-6.2-2.9-7.61.93,6.49,19.46,13.71,38.89,18.47,58.85-.59.65-1.21,1.31-1.78,2-4.14-17.24-9.92-34.46-16-51.05-1.76-4.81-6.2-3.28-7.8.56,6.34,19,12.3,37.94,16.87,57.4l-1.81,1.71c-4.2-16.73-8.75-33.35-14.53-49.59-1.62-4.54-6.13-3.82-8,0,6.1,18.35,11.94,36.73,15.28,55.81-.93.74-1.91,1.44-2.89,2.11A251.07,251.07,0,0,0,234.15,145c-1.46-4.18-5.88-4.31-8.05-.75,5.36,16.9,10.43,34.08,12.13,51.79l-1.69,1a196,196,0,0,0-9.33-43.1c-1.28-3.94-5.75-4.39-8.18-1.33,4.59,15.84,9.24,32.31,9.25,48.9-1,.5-2.1,1-3.12,1.49.05-13.92-2.81-27.11-6.55-40.54-1.07-3.82-5.92-4-8.31-1.22,3.33,15.45,7,30.13,6.23,46.07-1.73,1-3.37,2.09-5,3.26Z" style="fill:#C53F3F"></path><g style="opacity:0.30000000000000004"><path d="M213.71,213.56c1.54-1,3.14-1.91,4.72-2.83,21.23,8.29,41,14.86,64,16.45,3.29-2.55,4.3-7.73-1.06-8.26-19-1.89-36.43-5.66-54.15-12.94,1.17-.53,2.37-1.07,3.51-1.68,20.45,7.77,41,11.15,62.87,11.37,3.2-2.55,4-8.32-1.26-8.44-18.42-.4-35.68-2-53.27-7.59.92-.5,1.83-1.06,2.75-1.58,19.86,5.31,40.07,7.49,60.59,5.54,2.82-2.7,3.43-8.72-1.63-8.44-17.4,1-34.15,1.23-51.18-2.43a29,29,0,0,0,2.41-1.89c20,3.72,40.08,2.33,60.11-.14,2.69-2.95,2.63-9.11-2.25-8.66-17,1.57-33.6,4.93-50.6,2.49.65-.56,1.26-1.17,1.9-1.75,18.7,2.16,38.37-2,56.78-4.9,2.54-3,2.08-9.27-2.64-8.7-15.9,1.91-31.36,6.29-47.22,6.43.62-.63,1.2-1.33,1.81-2,17.55-.52,35.89-5.81,53.22-8.75,2.39-3.16,1.6-9.37-3.07-8.78-15.13,1.9-29.38,5.48-44.24,8.09.5-.87.95-1.8,1.44-2.7,16.78-3.37,33.58-6.81,50.43-9.67,2.3-3.24,1.22-9.35-3.39-8.78-14.36,1.79-27.82,5.43-41.89,8.11.46-.88.88-1.82,1.3-2.73,16-3.55,32-6.67,48.05-9.59,2.2-3.3.94-9.3-3.62-8.71-13.66,1.78-26.48,5.06-39.81,7.84.41-.87.78-1.81,1.17-2.71,15.26-3.52,30.66-6.42,46-9.32,2-3.26.81-9.3-3.73-8.7-13,1.73-25.31,4.9-38,7.65.39-.86.74-1.8,1.12-2.69,14.62-3.36,29.33-6.42,44.1-9.06,1.62-3.71,1.07-8.52-3.75-9-12.14,2.29-24.17,5.12-36.21,7.87.36-.88.71-1.76,1.07-2.65,13.91-3.19,28.12-7.41,42.34-8.86,1.71-3.53,1.58-8-3-9-12,1-23.55,5.44-35.32,8l1.11-2.54c14-3,27.16-8.17,41.66-7.91,2.16-3.16,2.82-7.33-1.57-8.76-12.24-.52-23.31,2.47-34.94,6,.55-1,1.13-2.08,1.69-3.12C326,79,338.93,76.83,353.31,79.27c3.31-2.36,3.91-6.17.07-8.38-11.28-3-22.45-2.08-33.75.29.72-1,1.43-2,2.15-3,13.75-2.4,27-1.7,40.15,3.34,3.71-1.86,5.12-5.41,1.34-8.13-10.52-4-20.94-6.41-32.27-5.7.84-.84,1.68-1.64,2.58-2.42,13.83-.05,25.8,4.81,38.49,9.69,4-1.58,5.66-5,1.92-8.06-9.55-3.84-19.23-8.79-29.62-9.71a47.53,47.53,0,0,1,5.24-3.11c9.56,2.56,18.49,7.1,27.59,11,3-1.19,4.54-3.93,1.6-6.26-7-2.81-14-5.81-20.94-8.81l2.4-1c6.64,1.51,13.32,2.81,20,4.22,2-1.32,2.6-3.53.18-4.78-5.5-1.07-11.12-2.11-16.58-3.09,2.37-4.24,7.07-10.35,9-14.07s-1.58-3.41-3.28-3.45c-3.85,6.09-7.56,12-11.18,18.1-.83.33-1.77.83-2.52,1,1.9-6.47,6.52-16.07,8-21.7s-3.4-3.95-5.62-3.53c-3.58,10-7,19.73-10.82,29.52-2,1.06-4,2.42-5.76,3.52,2.71-9.35,9.89-23.16,12.06-31.29s-5.5-4.57-8.16-4c-5.54,14.65-11.09,28.7-14.89,43.74-.85.75-1.86,1.89-2.55,2.49,1.06-11.36,9-27.77,11.63-37s-7.15-3-9.08-2.8c-6.11,16.57-11.46,33.13-12,50.71-.69.93-1.6,2.2-2.16,2.93-.83-12.94,5-32,7.72-42.61s-8.12-1.44-9.69-1.05a147.94,147.94,0,0,0-5.67,55.8c-.51.92-1.19,2.26-1.59,2.93-2.74-13.66.43-34.74,1.68-46.33s-8.24-.16-9.66.2a138.27,138.27,0,0,0,2.79,57c-.37.76-.85,2-1.15,2.49-4.9-13.17-5.1-34.48-5.31-46.21s-7.71.39-9.33.88c.41,19.48,4.39,37.41,10.46,55.57a25.46,25.46,0,0,1-1.06,2.45c-5.34-12.37-9.12-33.81-10.93-44.9s-6.81,0-8.55.92c3,19,9.18,36.54,15.4,54.35-.36.88-.76,1.78-1.09,2.68-5.54-15.2-10-30.21-14.42-45.91-1.49-5.32-6.54-2.25-7.7,1.85,4.5,18.49,11.67,36.37,17.78,54.4-.38.9-.8,1.82-1.16,2.72-5.47-15.52-10.61-31.13-16-46.67-1.77-5-6.3-2.65-7.53,1.36,5.94,18.71,12.83,37.1,18.93,55.75-.42.91-.87,1.84-1.28,2.74-5.3-16.2-10.72-32.59-16.74-48.48-1.88-5-6.18-2.77-7.57,1.07,6.49,19.22,13.56,38.26,19.13,57.77L272.55,163c-5.11-17-10.56-34.17-16.83-50.66-1.89-5-6.2-2.9-7.61.93,6.49,19.46,13.71,38.89,18.47,58.85-.59.65-1.21,1.31-1.78,2-4.14-17.24-9.92-34.46-16-51.05-1.76-4.81-6.2-3.28-7.8.56,6.34,19,12.3,37.94,16.87,57.4l-1.81,1.71c-4.2-16.73-8.75-33.35-14.53-49.59-1.62-4.54-6.13-3.82-8,0,6.1,18.35,11.94,36.73,15.28,55.81-.93.74-1.91,1.44-2.89,2.11A251.07,251.07,0,0,0,234.15,145c-1.46-4.18-5.88-4.31-8.05-.75,5.36,16.9,10.43,34.08,12.13,51.79l-1.69,1a196,196,0,0,0-9.33-43.1c-1.28-3.94-5.75-4.39-8.18-1.33,4.59,15.84,9.24,32.31,9.25,48.9-1,.5-2.1,1-3.12,1.49.05-13.92-2.81-27.11-6.55-40.54-1.07-3.82-5.92-4-8.31-1.22,3.33,15.45,7,30.13,6.23,46.07-1.73,1-3.37,2.09-5,3.26Z" style="fill:#fff"></path></g><path d="M227.38,338c-.85-1.63-1.6-3.3-2.37-5,10.29-20.33,18.71-39.43,22.49-62.12-2.22-3.52-7.28-5-8.32.26-3.7,18.76-9.12,35.72-18.05,52.67-.42-1.21-.85-2.46-1.35-3.66,9.7-19.61,15-39.79,17.34-61.49-2.24-3.43-7.91-4.74-8.52.45-2.17,18.29-5.41,35.32-12.66,52.3-.41-1-.88-1.93-1.31-2.9,7.19-19.26,11.29-39.16,11.32-59.77-2.42-3.07-8.36-4.26-8.57.81-.7,17.41-2,34.11-7.31,50.71-.46-.9-1.1-1.72-1.65-2.58C214,278.14,214.57,258,214,237.85c-2.68-3-8.82-3.5-8.84,1.41-.06,17.1,1.7,33.92-2.36,50.6-.49-.7-1-1.36-1.55-2.05,3.93-18.41,1.67-38.4.54-57-2.77-2.82-9-2.95-8.91,1.81.38,16,3.27,31.81,1.89,47.61-.57-.68-1.21-1.32-1.81-2,1.16-17.52-2.35-36.28-3.62-53.81-2.91-2.68-9.17-2.5-9,2.21.45,15.25,2.65,29.77,3.83,44.82-.82-.58-1.7-1.13-2.55-1.7-1.75-17-3.56-34.07-4.81-51.12-3-2.6-9.18-2.11-9.05,2.53.41,14.47,2.74,28.22,4.06,42.47-.83-.54-1.72-1.05-2.59-1.55-2-16.22-3.58-32.49-4.95-48.75-3.08-2.5-9.17-1.82-9,2.78.46,13.76,2.51,26.84,4,40.37-.83-.49-1.74-.94-2.59-1.42-2-15.53-3.46-31.14-4.87-46.71-3.06-2.35-9.19-1.69-9,2.88.48,13.11,2.46,25.66,4,38.56-.82-.47-1.72-.91-2.57-1.37-1.94-14.88-3.58-29.82-4.8-44.77-3.54-2-8.38-1.88-9.28,2.88,1.12,12.29,2.79,24.55,4.38,36.79L131.94,242c-1.85-14.16-4.69-28.71-4.78-43-3.35-2-7.86-2.35-9.25,2.1-.12,12.08,3.16,24,4.53,35.92L120,235.7c-1.62-14.19-5.54-27.82-3.9-42.23-2.93-2.46-7-3.51-8.86.72-1.7,12.14.22,23.45,2.61,35.35-1-.65-2-1.32-3-2-2.74-14.19-3.67-27.3.13-41.38-2-3.52-5.77-4.48-8.33-.88-4.08,10.95-4.22,22.15-2.94,33.63L93,216.51c-1.08-13.92.89-27.08,7.16-39.65-1.5-3.88-4.89-5.61-8-2.11-5,10.09-8.38,20.23-8.75,31.57-.76-.91-1.48-1.83-2.16-2.8,1.27-13.77,7.25-25.22,13.32-37.38C93.45,162,90.2,160,86.8,163.46c-4.74,9.13-10.58,18.3-12.49,28.55a46.18,46.18,0,0,1-2.6-5.51c3.46-9.27,8.83-17.73,13.57-26.42-.89-3.11-3.48-4.89-6.08-2.19-3.47,6.74-7.12,13.36-10.77,20l-.81-2.49c2.14-6.47,4.07-13,6.12-19.5-1.13-2.1-3.27-2.92-4.75-.64-1.59,5.38-3.16,10.87-4.65,16.21-4-2.76-9.64-8-13.16-10.3s-3.54,1.24-3.74,2.93c5.69,4.42,11.2,8.67,17,12.87.25.85.66,1.84.8,2.6-6.25-2.5-15.38-8-20.84-10.08s-4.25,3-4,5.26c9.63,4.52,19,8.83,28.35,13.6.87,2,2,4.24,3,6.07-9-3.59-22.11-12.07-30-15s-5.07,5-4.79,7.73c14.06,6.92,27.52,13.79,42.12,19,.67.91,1.7,2,2.24,2.77C70,206.8,54.41,197.3,45.46,193.83s-3.66,6.83-3.65,8.77c15.91,7.67,31.87,14.58,49.32,16.82.86.77,2,1.8,2.71,2.43-13-.41-31.35-8.07-41.68-11.76s-2.21,7.94-2,9.55a148.14,148.14,0,0,0,55,11c.86.6,2.13,1.4,2.76,1.86-13.87,1.43-34.54-3.74-46-6.09s-1,8.18-.72,9.63a138.28,138.28,0,0,0,57,2.67c.73.44,1.9,1,2.37,1.38-13.58,3.62-34.81,1.78-46.51.87s-.35,7.71,0,9.37c19.43,1.45,37.66-.79,56.31-5.1.71.42,1.9.92,2.34,1.29-12.82,4.13-34.53,5.85-45.74,6.58s-.61,6.79.1,8.6c19.2-1.17,37.25-5.64,55.58-10.12.84.44,1.7.92,2.56,1.34-15.67,4.06-31,7.1-47.08,10-5.44,1-2.87,6.29,1.1,7.84,18.84-2.71,37.32-8.14,55.85-12.49.87.46,1.74,1,2.6,1.4-16,4-32,7.6-48,11.51-5.19,1.27-3.23,6,.64,7.62,19.19-4.12,38.15-9.23,57.31-13.52.86.51,1.74,1.05,2.59,1.54-16.63,3.73-33.46,7.56-49.86,12-5.12,1.39-3.34,5.89.35,7.64,19.75-4.62,39.38-9.85,59.33-13.52l2.55,1.67c-17.39,3.47-35,7.24-52,11.91-5.12,1.41-3.48,5.89.19,7.66,20-4.6,40-9.92,60.35-12.76l1.77,2c-17.55,2.46-35.25,6.57-52.34,11-5,1.29-3.86,5.85-.19,7.81,19.48-4.49,38.94-8.61,58.75-11.3l1.53,2c-17.06,2.58-34,5.52-50.75,9.72-4.68,1.18-4.39,5.74-.78,8,18.85-4.31,37.71-8.37,57-9.87.66,1,1.26,2,1.83,3.07a252.56,252.56,0,0,0-46.86,7.34c-4.3,1.06-4.85,5.44-1.51,7.94,17.34-3.71,34.92-7.12,52.71-7.12.27.59.56,1.2.83,1.78-14.71-.11-29.46,2-43.8,5.16-4,.9-4.92,5.3-2.1,8,16.2-3.05,33-6.1,49.56-4.53.39,1.08.78,2.19,1.18,3.25-13.85-1.38-27.26.21-41,2.65-3.9.7-4.57,5.5-2,8.16,15.7-1.84,30.65-4.05,46.45-1.81.84,1.83,1.77,3.56,2.77,5.3Z" style="fill:#C53F3F"></path><g style="opacity:0.30000000000000004"><path d="M227.38,338c-.85-1.63-1.6-3.3-2.37-5,10.29-20.33,18.71-39.43,22.49-62.12-2.22-3.52-7.28-5-8.32.26-3.7,18.76-9.12,35.72-18.05,52.67-.42-1.21-.85-2.46-1.35-3.66,9.7-19.61,15-39.79,17.34-61.49-2.24-3.43-7.91-4.74-8.52.45-2.17,18.29-5.41,35.32-12.66,52.3-.41-1-.88-1.93-1.31-2.9,7.19-19.26,11.29-39.16,11.32-59.77-2.42-3.07-8.36-4.26-8.57.81-.7,17.41-2,34.11-7.31,50.71-.46-.9-1.1-1.72-1.65-2.58C214,278.14,214.57,258,214,237.85c-2.68-3-8.82-3.5-8.84,1.41-.06,17.1,1.7,33.92-2.36,50.6-.49-.7-1-1.36-1.55-2.05,3.93-18.41,1.67-38.4.54-57-2.77-2.82-9-2.95-8.91,1.81.38,16,3.27,31.81,1.89,47.61-.57-.68-1.21-1.32-1.81-2,1.16-17.52-2.35-36.28-3.62-53.81-2.91-2.68-9.17-2.5-9,2.21.45,15.25,2.65,29.77,3.83,44.82-.82-.58-1.7-1.13-2.55-1.7-1.75-17-3.56-34.07-4.81-51.12-3-2.6-9.18-2.11-9.05,2.53.41,14.47,2.74,28.22,4.06,42.47-.83-.54-1.72-1.05-2.59-1.55-2-16.22-3.58-32.49-4.95-48.75-3.08-2.5-9.17-1.82-9,2.78.46,13.76,2.51,26.84,4,40.37-.83-.49-1.74-.94-2.59-1.42-2-15.53-3.46-31.14-4.87-46.71-3.06-2.35-9.19-1.69-9,2.88.48,13.11,2.46,25.66,4,38.56-.82-.47-1.72-.91-2.57-1.37-1.94-14.88-3.58-29.82-4.8-44.77-3.54-2-8.38-1.88-9.28,2.88,1.12,12.29,2.79,24.55,4.38,36.79L131.94,242c-1.85-14.16-4.69-28.71-4.78-43-3.35-2-7.86-2.35-9.25,2.1-.12,12.08,3.16,24,4.53,35.92L120,235.7c-1.62-14.19-5.54-27.82-3.9-42.23-2.93-2.46-7-3.51-8.86.72-1.7,12.14.22,23.45,2.61,35.35-1-.65-2-1.32-3-2-2.74-14.19-3.67-27.3.13-41.38-2-3.52-5.77-4.48-8.33-.88-4.08,10.95-4.22,22.15-2.94,33.63L93,216.51c-1.08-13.92.89-27.08,7.16-39.65-1.5-3.88-4.89-5.61-8-2.11-5,10.09-8.38,20.23-8.75,31.57-.76-.91-1.48-1.83-2.16-2.8,1.27-13.77,7.25-25.22,13.32-37.38C93.45,162,90.2,160,86.8,163.46c-4.74,9.13-10.58,18.3-12.49,28.55a46.18,46.18,0,0,1-2.6-5.51c3.46-9.27,8.83-17.73,13.57-26.42-.89-3.11-3.48-4.89-6.08-2.19-3.47,6.74-7.12,13.36-10.77,20l-.81-2.49c2.14-6.47,4.07-13,6.12-19.5-1.13-2.1-3.27-2.92-4.75-.64-1.59,5.38-3.16,10.87-4.65,16.21-4-2.76-9.64-8-13.16-10.3s-3.54,1.24-3.74,2.93c5.69,4.42,11.2,8.67,17,12.87.25.85.66,1.84.8,2.6-6.25-2.5-15.38-8-20.84-10.08s-4.25,3-4,5.26c9.63,4.52,19,8.83,28.35,13.6.87,2,2,4.24,3,6.07-9-3.59-22.11-12.07-30-15s-5.07,5-4.79,7.73c14.06,6.92,27.52,13.79,42.12,19,.67.91,1.7,2,2.24,2.77C70,206.8,54.41,197.3,45.46,193.83s-3.66,6.83-3.65,8.77c15.91,7.67,31.87,14.58,49.32,16.82.86.77,2,1.8,2.71,2.43-13-.41-31.35-8.07-41.68-11.76s-2.21,7.94-2,9.55a148.14,148.14,0,0,0,55,11c.86.6,2.13,1.4,2.76,1.86-13.87,1.43-34.54-3.74-46-6.09s-1,8.18-.72,9.63a138.28,138.28,0,0,0,57,2.67c.73.44,1.9,1,2.37,1.38-13.58,3.62-34.81,1.78-46.51.87s-.35,7.71,0,9.37c19.43,1.45,37.66-.79,56.31-5.1.71.42,1.9.92,2.34,1.29-12.82,4.13-34.53,5.85-45.74,6.58s-.61,6.79.1,8.6c19.2-1.17,37.25-5.64,55.58-10.12.84.44,1.7.92,2.56,1.34-15.67,4.06-31,7.1-47.08,10-5.44,1-2.87,6.29,1.1,7.84,18.84-2.71,37.32-8.14,55.85-12.49.87.46,1.74,1,2.6,1.4-16,4-32,7.6-48,11.51-5.19,1.27-3.23,6,.64,7.62,19.19-4.12,38.15-9.23,57.31-13.52.86.51,1.74,1.05,2.59,1.54-16.63,3.73-33.46,7.56-49.86,12-5.12,1.39-3.34,5.89.35,7.64,19.75-4.62,39.38-9.85,59.33-13.52l2.55,1.67c-17.39,3.47-35,7.24-52,11.91-5.12,1.41-3.48,5.89.19,7.66,20-4.6,40-9.92,60.35-12.76l1.77,2c-17.55,2.46-35.25,6.57-52.34,11-5,1.29-3.86,5.85-.19,7.81,19.48-4.49,38.94-8.61,58.75-11.3l1.53,2c-17.06,2.58-34,5.52-50.75,9.72-4.68,1.18-4.39,5.74-.78,8,18.85-4.31,37.71-8.37,57-9.87.66,1,1.26,2,1.83,3.07a252.56,252.56,0,0,0-46.86,7.34c-4.3,1.06-4.85,5.44-1.51,7.94,17.34-3.71,34.92-7.12,52.71-7.12.27.59.56,1.2.83,1.78-14.71-.11-29.46,2-43.8,5.16-4,.9-4.92,5.3-2.1,8,16.2-3.05,33-6.1,49.56-4.53.39,1.08.78,2.19,1.18,3.25-13.85-1.38-27.26.21-41,2.65-3.9.7-4.57,5.5-2,8.16,15.7-1.84,30.65-4.05,46.45-1.81.84,1.83,1.77,3.56,2.77,5.3Z" style="fill:#fff"></path></g></g><g id="freepik--Device--inject-199"><rect x="172.51" y="55.57" width="188.38" height="399.9" rx="25.7" transform="translate(-33.9 40.91) rotate(-8.25)" style="fill:#263238;stroke:#263238;stroke-miterlimit:10"></rect><path d="M328.72,72.6l49.39,340.69a21.6,21.6,0,0,1-18.28,24.47L229.16,456.71a22.63,22.63,0,0,1-2.94.22,21.6,21.6,0,0,1-21.55-18.5L155.28,97.74a21.61,21.61,0,0,1,18.29-24.48l3.8-.55c11.75-1.7,23.56-3.19,35.26-5.12,0,.08,0,.23,0,.34,3.13-1,8.33-.3,11,1.68,4.22,3.15,9.27,7.57,15,7.34,6-.25,10-5.69,13.25-10,3.68-4.88,9.34-6.36,15.16-7.2l37.24-5.4A21.59,21.59,0,0,1,328.72,72.6Z" style="fill:#fff;stroke:#263238;stroke-linejoin:round"></path><path d="M328.72,72.6,335,116c-15.42,25.22-56.72,60.8-104.54,95.37-25.88,18.72-41.92,35.15-51.79,47.78l-15.22-105q1.92-3.78,4.23-7.77c18.5-31.84,70.74-58.12,106-87.7l30.55-4.43A21.59,21.59,0,0,1,328.72,72.6Z" style="opacity:0.1"></path><path d="M347.07,199.13l19.24,132.72c-15.43,25.22-56.73,60.8-104.54,95.37a301.14,301.14,0,0,0-35.55,29.71,21.6,21.6,0,0,1-21.55-18.5L194.75,370q1.94-3.78,4.24-7.76c25.92-44.64,118.16-78.36,137-125.52A249.46,249.46,0,0,0,347.07,199.13Z" style="opacity:0.1"></path><path d="M242.25,68.06A3.81,3.81,0,1,0,239,72.37,3.82,3.82,0,0,0,242.25,68.06Z" style="fill:#7d7d7d;stroke:#fff;stroke-miterlimit:10"></path><path d="M347.67,158h0l-7.14-49.26h0a3.42,3.42,0,0,1,3.87,2.89l6.16,42.51A3.41,3.41,0,0,1,347.67,158Z" style="fill:#263238;stroke:#263238;stroke-miterlimit:10"></path><path d="M353.83,200.43h0l-3.57-24.58h0a3.42,3.42,0,0,1,3.87,2.89l2.58,17.82A3.41,3.41,0,0,1,353.83,200.43Z" style="fill:#263238;stroke:#263238;stroke-miterlimit:10"></path><rect x="293.45" y="62.87" width="16.5" height="9.05" transform="matrix(0.99, -0.14, 0.14, 0.99, -6.55, 43.98)" style="fill:none;stroke:#263238;stroke-linecap:round;stroke-linejoin:round;stroke-width:0.821067px"></rect><rect x="293.47" y="63.13" width="12.87" height="9.05" transform="translate(-6.6 43.73) rotate(-8.25)" style="fill:#263238;stroke:#263238;stroke-linecap:round;stroke-linejoin:round;stroke-width:0.725073px"></rect><rect x="309.82" y="64.05" width="2.32" height="3.99" transform="translate(-6.26 45.3) rotate(-8.25)" style="fill:#263238;stroke:#263238;stroke-linecap:round;stroke-linejoin:round;stroke-width:0.725073px"></rect><rect x="165.45" y="85.21" width="3.03" height="5.19" transform="translate(-10.87 24.86) rotate(-8.25)" style="fill:#263238;stroke:#263238;stroke-linecap:round;stroke-linejoin:round;stroke-width:0.8830859999999999px"></rect><rect x="170.02" y="82.72" width="3.03" height="7.01" transform="translate(-10.6 25.5) rotate(-8.25)" style="fill:#263238;stroke:#263238;stroke-linecap:round;stroke-linejoin:round;stroke-width:0.8830859999999999px"></rect><rect x="174.57" y="79.9" width="3.03" height="9.16" transform="translate(-10.3 26.14) rotate(-8.25)" style="fill:#263238;stroke:#263238;stroke-linecap:round;stroke-linejoin:round;stroke-width:0.8830859999999999px"></rect></g><g id="freepik--Cart--inject-199"><path d="M306.78,361.2a1.72,1.72,0,0,0-1.41-.46l-34.4,5-2-4.64a1.65,1.65,0,0,0-1.76-1l-11.38,1.65a1.67,1.67,0,0,0,.48,3.31l10.12-1.47,8.94,20.33a1.65,1.65,0,0,0,.29.66l3.53,8a1.67,1.67,0,0,0,1.77,1l19.21-2.78a1.67,1.67,0,0,0-.48-3.31l-17.95,2.6-2.28-5.17,24.23-3.51a1.67,1.67,0,0,0,1.41-1.45l2.2-17.37A1.68,1.68,0,0,0,306.78,361.2ZM303,369.64l-3.16.45-2-4.88,5.85-.85Zm-.78,6.16-1.05-2.52,1.39-.2Zm-8.12,3.63-2-4.83,5.66-.83,2,4.84ZM285,380.75l-2-4.84,5.66-.82,2,4.84Zm.29-13.73,2,4.89-5.67.82-2-4.88Zm9.08-1.31,2,4.88-5.67.82-2-4.88Zm-18.15,2.63,2,4.88-3.77.55-2.14-4.87Zm-.34,8.6,3.7-.53,2,4.83-3.59.52Z" style="fill:#263238"></path><path d="M283.81,393.3a2.84,2.84,0,1,0,3.22,2.41A2.84,2.84,0,0,0,283.81,393.3Z" style="fill:#263238"></path><path d="M297.49,391.32a2.84,2.84,0,1,0,3.22,2.4A2.84,2.84,0,0,0,297.49,391.32Z" style="fill:#263238"></path></g><g id="freepik--Hat--inject-199"><path d="M223.85,41.14s-31.15-12.69-42-17.49-47.46-6.5-59,1.55S90.12,72.64,84.35,85.58,56.86,124.62,59,139s20.66,84.4,22.37,87.34,7.5,7.83,11.77,2.12,29.57-76.39,29.83-79,3.48-15.14,3.48-15.14a10,10,0,0,0,3.29,9.06c4.38,3.82,17.3-3.78,23.87-15.57s7.45-23.39,30.53-35.66,42.5-23.36,47-31.67S223.85,41.14,223.85,41.14Z" style="fill:#263238;stroke:#263238;stroke-miterlimit:10"></path><path d="M118.52,249.91c1.87,12.93-9.75,33-22.68,34.84s-26-14.58-27.89-27.51a23.66,23.66,0,0,1,20-26.8C100.9,228.57,116.64,237,118.52,249.91Z" style="fill:#fff;stroke:#263238;stroke-linejoin:round"></path><path d="M167.24,179.35s3.45-4.62,10.83-18.64S196,129.87,216,109.9s26.3-25.59,40.36-38.22,10.63-12,10.63-12l-15,2.17s-66.3,54.16-78,75.27A65.12,65.12,0,0,0,167.24,179.35Z" style="fill:#263238"></path><path d="M205.33,50.82a83.71,83.71,0,0,1-7.07,7.63C194,62.52,187.78,68.3,184.38,70.8c-5.5,4-22.19,15-33.48,23.93S127.42,130.87,125,136.82c-1.72,4.25-.29,8.3,2.16,11.2s9.34,11.23,10.08,13.56,0,8.16,2.76,13.44c3.09,5.84,16.83,18.36,23.87,12,2.16-1.94,5.6-11.78,6.34-15.13s9.58-34.69,24.05-46.94,41.81-36.51,54.23-48.87a277.49,277.49,0,0,0,21-23.35s.45-5.34-3.31-8.85-11.61-4.41-19.33-4.51-9.28-5.15-20.13-4.39C218.75,35.58,209.63,45.53,205.33,50.82Z" style="fill:#fff;stroke:#263238;stroke-linejoin:round"></path><path d="M181.35,108.22a100.2,100.2,0,0,0,8.24-9.14" style="fill:#fff;stroke:#263238;stroke-linejoin:round"></path><path d="M140.84,159.31s1.64-11,13-26.67c7.94-10.93,13.46-12.4,23.34-20.67" style="fill:#fff;stroke:#263238;stroke-linejoin:round"></path><path d="M242.73,41.79S238.11,44.62,230,55.5" style="fill:#fff;stroke:#263238;stroke-linejoin:round"></path><path d="M227.93,58.67s-3.41,3.73-5.27,5.79" style="fill:#fff;stroke:#263238;stroke-linejoin:round"></path><line x1="126.19" y1="137.61" x2="129.73" y2="83.39" style="fill:none;stroke:#fff;stroke-linejoin:round"></line><line x1="136.69" y1="78.68" x2="138.04" y2="74.25" style="fill:none;stroke:#fff;stroke-linejoin:round"></line><line x1="128.05" y1="107.02" x2="135.82" y2="81.55" style="fill:none;stroke:#fff;stroke-linejoin:round"></line></g><g id="freepik--Text--inject-199"><rect x="180.27" y="195.7" width="165.28" height="73.81" transform="translate(-32.11 42.37) rotate(-8.68)" style="fill:#263238"></rect><path d="M205.41,199.58l-5.49-37.86c-.39.29-.85.6-1.36.91l-1.63,1-1.65,1c-.54.32-1,.63-1.46.93l-1-7.28q.58-.45,1.68-1.23c.72-.53,1.49-1.11,2.32-1.75s1.59-1.28,2.3-1.92a12.25,12.25,0,0,0,1.56-1.63l7.69-1.12,6.89,47.55Z" style="fill:#263238"></path><path d="M222.84,197.05l-1-6.92L230.69,171q1-2.11,1.89-4.11a21.89,21.89,0,0,0,1.35-4,11,11,0,0,0,.16-4,4.82,4.82,0,0,0-1.26-2.93,2.79,2.79,0,0,0-2.38-.68,3.4,3.4,0,0,0-2.34,1.24,4.69,4.69,0,0,0-.86,2.52,16.15,16.15,0,0,0,.15,3.34l.34,2.35-9.51,1.37-.36-2.52a20,20,0,0,1,.25-7.74,11.14,11.14,0,0,1,3.53-5.84,14,14,0,0,1,7.42-3q6.39-.91,10.13,1.92t4.6,8.77a15.66,15.66,0,0,1-.13,5.48,24.38,24.38,0,0,1-1.72,5.13q-1.15,2.53-2.5,5.31l-6.8,14.23,13.91-2,1.11,7.69Z" style="fill:#263238"></path><path d="M253.31,192.64l-1.31-9,9-1.31,1.31,9Z" style="fill:#263238"></path><path d="M272.74,189.82,267.25,152c-.4.29-.85.6-1.37.91l-1.62,1-1.66,1c-.53.32-1,.63-1.45.93l-1-7.28c.39-.3.95-.71,1.67-1.23s1.5-1.11,2.33-1.75,1.59-1.28,2.3-1.92A13.72,13.72,0,0,0,268,142l7.69-1.12,6.89,47.55Z" style="fill:#263238"></path><path d="M290.17,187.29l-1-6.93L298,161.22q1-2.11,1.89-4.11a21.1,21.1,0,0,0,1.34-4,10.75,10.75,0,0,0,.17-4,4.77,4.77,0,0,0-1.27-2.93,2.76,2.76,0,0,0-2.37-.68,3.4,3.4,0,0,0-2.34,1.24,4.69,4.69,0,0,0-.86,2.52,14.87,14.87,0,0,0,.15,3.34l.34,2.35-9.51,1.37-.36-2.52a20,20,0,0,1,.25-7.74,11.14,11.14,0,0,1,3.53-5.84,14,14,0,0,1,7.41-3q6.41-.92,10.14,1.92t4.6,8.77a15.42,15.42,0,0,1-.14,5.48,24.93,24.93,0,0,1-1.71,5.13c-.77,1.69-1.61,3.46-2.5,5.31L300,178l13.91-2,1.11,7.69Z" style="fill:#263238"></path><path d="M218.47,351.88a23.59,23.59,0,0,1-11.32-.75,15.09,15.09,0,0,1-7.7-6.25,33.63,33.63,0,0,1-4.35-12.31l13-3.9a31.54,31.54,0,0,0,1.87,7.14,8.15,8.15,0,0,0,2.65,3.68,4.72,4.72,0,0,0,3.42.74c1.61-.23,2.59-.93,2.92-2.1a8.44,8.44,0,0,0,.23-3.57,12.63,12.63,0,0,0-3.13-7,33.3,33.3,0,0,0-6.49-5.2L202.7,318a34.26,34.26,0,0,1-7.81-6.69,19.52,19.52,0,0,1-4.26-10.19q-1.29-8.91,3.3-14.39t13.67-6.79a18.85,18.85,0,0,1,9.31.59,13.49,13.49,0,0,1,5.91,4.22,20.69,20.69,0,0,1,3.36,6.14,41.8,41.8,0,0,1,1.68,6.42l-13.08,3.57q-.54-3.11-1.17-5.35a7.5,7.5,0,0,0-1.77-3.36,3.5,3.5,0,0,0-3.12-.83,3.38,3.38,0,0,0-2.89,2.28,7.59,7.59,0,0,0-.47,3.77,10.37,10.37,0,0,0,2.78,6.09,36.72,36.72,0,0,0,5.63,4.43l6.54,4.27a39.75,39.75,0,0,1,9,7.69,22.53,22.53,0,0,1,4.93,11.74,18.25,18.25,0,0,1-.95,9.27,16.68,16.68,0,0,1-5.44,7.28A19.65,19.65,0,0,1,218.47,351.88Z" style="fill:#263238"></path><path d="M240.11,347.68l3.08-72,17.64-2.55L284,341.31l-14.27,2.07-4.48-14.45L255,330.42l-.27,15.14ZM255,321l7.44-1.08-7.68-26.78Z" style="fill:#263238"></path><path d="M290.44,340.38l-10.16-70,15.48-2.24,8.64,59.58,16.08-2.33L322,335.81Z" style="fill:#263238"></path><path d="M328.05,334.93l-10.15-70,31.47-4.56,1.53,10.55-16,2.32,2.52,17.38,12.2-1.77,1.55,10.72L339,301.3l3,20.93,16.17-2.35,1.52,10.46Z" style="fill:#263238"></path><polygon points="184.4 212.81 200.4 210.49 209.23 236.19 210.78 208.99 226.28 206.74 235.87 265.71 224.11 267.41 219.95 243.46 219.25 268.12 208.93 269.61 200.83 245.66 203.85 270.35 191.95 272.07 184.4 212.81" style="fill:#C53F3F"></polygon><path d="M225,208.44l9.11,56-8.8,1.28-6.46-37.21-1.1,38.3L210,268l-12.39-36.64,4.63,37.76-8.94,1.3-7.17-56.29,13.31-1.93,10.9,31.76,1.92-33.61L225,208.44m2.49-3.4-2.92.43-12.82,1.86-2.43.35-.14,2.44-1.05,18.36-5.94-17.3-.8-2.35-2.46.35-13.31,1.93-2.92.43.37,2.92,7.17,56.29.39,3,3-.44,8.94-1.3,2.9-.42-.35-2.91L204.1,260l3,8.9.8,2.36,2.47-.35,7.83-1.14,2.5-.36.07-2.52.25-8.49,1.35,7.82.5,2.87,2.89-.41,8.8-1.28,3-.44-.49-3L228,208l-.47-2.91Z" style="fill:#263238"></path><polygon points="231.58 205.97 259.78 201.88 261.44 213.31 248.61 215.17 250.2 226.13 259.98 224.71 261.65 236.28 251.88 237.69 253.88 251.5 266.84 249.62 268.49 260.98 240.15 265.08 231.58 205.97" style="fill:#C53F3F"></polygon><path d="M258.51,203.58l1.23,8.46-12.83,1.86,2,13.93,9.78-1.42L260,235l-9.77,1.42,2.43,16.77,13-1.88,1.22,8.39-25.37,3.67-8.14-56.14,25.23-3.66m2.54-3.4-3,.43-25.23,3.66-3,.43.43,3,8.14,56.15.43,3,3-.43,25.37-3.67,3-.43-.43-3-1.22-8.39-.43-3-3,.43-10,1.45L253.58,239l6.8-1,3-.43-.43-3-1.24-8.6-.44-3-3,.43-6.81,1-1.16-8,9.86-1.43,3-.43-.43-3-1.23-8.46-.43-3Z" style="fill:#263238"></path><path d="M283.81,259.36A14,14,0,0,1,270.49,251a35.35,35.35,0,0,1-3-10.4l-2.73-18.85a33.11,33.11,0,0,1,0-11,14.42,14.42,0,0,1,4.74-8.36c2.45-2.14,6-3.55,10.51-4.21a31.47,31.47,0,0,1,4.47-.35,17.1,17.1,0,0,1,6.41,1.1,13.44,13.44,0,0,1,6.66,5.64,24.12,24.12,0,0,1,3,8.93l.73,5.09-15.1,2.18-.87-6.06a20.68,20.68,0,0,0-.68-3.06,3.21,3.21,0,0,0-1-1.58,1.76,1.76,0,0,0-1.06-.26,6.56,6.56,0,0,0-.73,0,2.32,2.32,0,0,0-1.69.8,3.85,3.85,0,0,0-.53,2.06,20.16,20.16,0,0,0,.22,3.14l3.77,26a13.61,13.61,0,0,0,.8,3.11,3.9,3.9,0,0,0,1.27,1.78,2,2,0,0,0,1.27.36,5,5,0,0,0,.64-.05,2.64,2.64,0,0,0,1.84-.89,4.2,4.2,0,0,0,.77-2.17,13,13,0,0,0-.08-3.22l-.74-5.11-5.06.74-1.49-10.25L302,223.36l4.65,32.08L295.74,257l-.67-2.21a12.51,12.51,0,0,1-1.28,1.46,11.36,11.36,0,0,1-6.43,2.81A24.92,24.92,0,0,1,283.81,259.36Z" style="fill:#C53F3F"></path><path d="M284.49,199.32a15.57,15.57,0,0,1,5.85,1,11.87,11.87,0,0,1,5.93,5A22.44,22.44,0,0,1,299,213.7l.52,3.61-12.13,1.75-.66-4.57a20.82,20.82,0,0,0-.72-3.29,4.64,4.64,0,0,0-1.47-2.3,3.1,3.1,0,0,0-2-.6,6.22,6.22,0,0,0-.94.07,3.62,3.62,0,0,0-2.76,1.5,5.41,5.41,0,0,0-.76,2.83,23,23,0,0,0,.25,3.36l3.76,26a15.56,15.56,0,0,0,.89,3.45,5.35,5.35,0,0,0,1.77,2.43,3.48,3.48,0,0,0,2.17.66,6.48,6.48,0,0,0,.85-.07,4.08,4.08,0,0,0,2.83-1.47,5.8,5.8,0,0,0,1.07-2.92,15,15,0,0,0-.1-3.59l-.95-6.59-5.07.74-1-7.28,16.22-2.35L305,254.17l-8.18,1.19-1.37-4.55a10.19,10.19,0,0,1-2.69,4.39,9.74,9.74,0,0,1-5.59,2.4,22.1,22.1,0,0,1-3.34.26,12.48,12.48,0,0,1-12-7.48,33.4,33.4,0,0,1-2.89-9.95l-2.74-18.86a31.94,31.94,0,0,1,0-10.54,12.91,12.91,0,0,1,4.25-7.52q3.36-2.92,9.74-3.85a28.74,28.74,0,0,1,4.26-.34m0-3a33.12,33.12,0,0,0-4.69.37c-4.81.69-8.61,2.23-11.28,4.56a15.94,15.94,0,0,0-5.22,9.2,34.74,34.74,0,0,0-.06,11.55L266,240.86a36.44,36.44,0,0,0,3.17,10.84,15.45,15.45,0,0,0,14.66,9.16,26.57,26.57,0,0,0,3.77-.29,13.15,13.15,0,0,0,6.81-2.81l.28.94,2.56-.37,8.18-1.19,3-.43-.43-3-4.22-29.11-.43-3-3,.43-16.22,2.35-1.47.21-1.31-9a21.1,21.1,0,0,1-.21-2.91,2.63,2.63,0,0,1,.27-1.2,2.36,2.36,0,0,1,.68-.18,3.25,3.25,0,0,1,.51,0h.2a2,2,0,0,1,.4.78,18.61,18.61,0,0,1,.62,2.83l.66,4.57.44,3,3-.43L300,220.27l3-.43-.43-3-.52-3.61a25.68,25.68,0,0,0-3.16-9.48,14.89,14.89,0,0,0-7.38-6.26,18.72,18.72,0,0,0-7-1.21Zm.07,41.55,1.46-.21,2.1-.31.52,3.62a11.54,11.54,0,0,1,.08,2.86,2.78,2.78,0,0,1-.48,1.42,1.51,1.51,0,0,1-.86.3,3.47,3.47,0,0,1-.42,0,.77.77,0,0,1-.38-.06,2.49,2.49,0,0,1-.76-1.12,12.65,12.65,0,0,1-.72-2.79l-.54-3.75Z" style="fill:#263238"></path><path d="M311.06,194.45l16.6-2.41,19.59,57.52-14.49,2.1-3.59-11.58-5.72.83L323.23,253l-14.77,2.14Zm12.43,35.85,2.56-.37-2.64-9.23Z" style="fill:#C53F3F"></path><path d="M326.64,193.71l18.61,54.62L333.81,250l-3.59-11.58L322,239.6l-.22,12.14L310,253.44l2.46-57.68,14.14-2M322,232l6-.87-6.16-21.47L322,232m6.67-41.65-2.47.36-14.14,2-2.46.35-.1,2.49L307,253.31l-.15,3.62,3.58-.52,11.71-1.7,2.52-.37.05-2.55.18-9.58,3.19-.46,2.83,9.13.76,2.45,2.53-.37,11.44-1.66,3.57-.52-1.16-3.41-18.61-54.63-.8-2.36Z" style="fill:#263238"></path></g><g id="freepik--Sparkles--inject-199"><circle cx="244.88" cy="36.2" r="14.38" style="fill:#fff"></circle><circle cx="244.88" cy="36.2" r="14.38" style="fill:none;stroke:#263238;stroke-linecap:round;stroke-linejoin:round"></circle><circle cx="373.66" cy="253.99" r="14.38" style="fill:#fff"></circle><circle cx="373.66" cy="253.99" r="14.38" style="fill:none;stroke:#263238;stroke-linecap:round;stroke-linejoin:round"></circle><circle cx="80.71" cy="155.39" r="14.38" transform="translate(-21.91 13.51) rotate(-8.43)" style="fill:#fff"></circle><circle cx="80.71" cy="155.39" r="14.38" transform="translate(-21.91 13.51) rotate(-8.43)" style="fill:none;stroke:#263238;stroke-linecap:round;stroke-linejoin:round"></circle><circle cx="413.17" cy="65.58" r="7.19" style="fill:#fff"></circle><circle cx="413.17" cy="65.58" r="7.19" style="fill:none;stroke:#263238;stroke-linecap:round;stroke-linejoin:round"></circle><circle cx="386.14" cy="375.65" r="7.19" style="fill:#fff"></circle><circle cx="386.14" cy="375.65" r="7.19" style="fill:none;stroke:#263238;stroke-linecap:round;stroke-linejoin:round"></circle><circle cx="301.17" cy="337.93" r="7.19" style="fill:#fff"></circle><circle cx="301.17" cy="337.93" r="7.19" style="fill:none;stroke:#263238;stroke-linecap:round;stroke-linejoin:round"></circle><path d="M400.61,235.27c-5.66-.84-6.35-1.52-7.19-7.19-.84,5.67-1.52,6.35-7.19,7.19,5.67.84,6.35,1.53,7.19,7.19C394.26,236.8,395,236.11,400.61,235.27Z" style="fill:#fff"></path><path d="M400.61,235.27c-5.66-.84-6.35-1.52-7.19-7.19-.84,5.67-1.52,6.35-7.19,7.19,5.67.84,6.35,1.53,7.19,7.19C394.26,236.8,395,236.11,400.61,235.27Z" style="fill:none;stroke:#263238;stroke-linecap:round;stroke-linejoin:round"></path><circle cx="107.18" cy="370.53" r="7.19" style="fill:#fff"></circle><circle cx="107.18" cy="370.53" r="7.19" style="fill:none;stroke:#263238;stroke-linecap:round;stroke-linejoin:round"></circle><circle cx="159.46" cy="262.31" r="7.19" style="fill:#fff"></circle><circle cx="159.46" cy="262.31" r="7.19" style="fill:none;stroke:#263238;stroke-linecap:round;stroke-linejoin:round"></circle></g></svg>